<?xml version="1.0" encoding="utf-8"?>
<!-- Generator: Adobe Illustrator 17.0.0, SVG Export Plug-In . SVG Version: 6.00 Build 0)  -->
<!DOCTYPE svg PUBLIC "-//W3C//DTD SVG 1.1//EN" "http://www.w3.org/Graphics/SVG/1.1/DTD/svg11.dtd">
<svg version="1.1" id="Layer_1" xmlns="http://www.w3.org/2000/svg" xmlns:xlink="http://www.w3.org/1999/xlink" x="0px" y="0px"
	 width="1000px" height="170.375px" viewBox="0 0 1000 170.375" enable-background="new 0 0 1000 170.375" xml:space="preserve">
<g>
	<path fill="#FFFFFF" d="M31.17,168.111H0.134L31.493,11.208h31.036L31.17,168.111z"/>
	<path fill="#FFFFFF" d="M113.824,88.367l0.646,0.108l21.23-36.964h35.023l-41.489,57.655l23.816,58.946h-34.915l-9.915-37.825
		l-0.646-0.108l-22.091,37.933H50.46l42.782-58.946L70.073,51.51h34.808L113.824,88.367z"/>
	<path fill="#FFFFFF" d="M230.857,22.954l-5.711,28.557h18.428l-4.418,22.093h-18.428l-11.854,59.378
		c-1.007,4.886-0.862,8.208,0.431,9.968c1.294,1.761,3.376,2.64,6.25,2.64c1.868,0,3.61-0.089,5.227-0.269
		c1.616-0.179,3.322-0.485,5.119-0.916l-1.939,22.738c-3.593,1.078-7.077,1.886-10.454,2.425c-3.378,0.539-7.004,0.808-10.884,0.808
		c-9.699,0-16.884-3.053-21.553-9.161c-4.671-6.105-5.748-15.481-3.233-28.126l11.854-59.485h-15.518l4.418-22.093h15.518
		l5.711-28.557H230.857z"/>
	<path fill="#FFFFFF" d="M272.453,168.111h-31.036L275.04,0h31.036L272.453,168.111z"/>
	<path fill="#FFFFFF" d="M329.245,168.111h-31.036L321.486,51.51h31.036L329.245,168.111z M358.125,23.601H327.09L331.831,0h31.036
		L358.125,23.601z"/>
	<path fill="#FFFFFF" d="M480.115,11.208l12.391,115.522l0.648,0.108l58.84-115.63h40.519l-31.359,156.904h-31.036l9.375-46.77
		l16.057-65.951l-0.539-0.215l-60.024,112.936h-20.798L459.531,55.714h-0.646l-10.238,65.628l-9.375,46.77h-31.036l31.359-156.904
		H480.115z"/>
	<path fill="#FFFFFF" d="M593.157,108.734c2.873-18.105,9.645-32.526,20.314-43.268c10.669-10.739,24.156-16.11,40.466-16.11
		c15.588,0,27.191,5.587,34.807,16.758c7.614,11.172,10.058,25.378,7.328,42.62l-0.323,2.263
		c-2.947,18.177-9.753,32.617-20.421,43.321c-10.669,10.705-24.158,16.057-40.466,16.057c-15.59,0-27.193-5.567-34.807-16.704
		c-7.616-11.135-10.022-25.36-7.22-42.673L593.157,108.734z M623.763,110.941c-1.797,11.12-1.617,19.763,0.539,25.932
		c2.154,6.169,6.932,9.255,14.332,9.255c6.824,0,12.428-3.245,16.811-9.738c4.382-6.493,7.436-14.975,9.159-25.449l0.324-2.26
		c1.724-10.76,1.491-19.297-0.701-25.609c-2.192-6.313-6.915-9.47-14.17-9.47c-6.897,0-12.555,3.3-16.973,9.9
		c-4.418,6.601-7.419,14.994-8.999,25.179L623.763,110.941z M665.035,6.035h32.545l0.215,0.647L665.359,34.7h-23.816l-0.216-0.539
		L665.035,6.035z"/>
	<path fill="#FFFFFF" d="M780.344,79.313l-12.393-0.323c-3.808,0-7.203,0.916-10.184,2.748s-5.514,4.436-7.597,7.813l-15.733,78.559
		h-30.928L726.785,51.51h28.88l-1.723,14.98l0.538,0.323c3.234-5.531,7.059-9.823,11.477-12.878c4.419-3.053,9.214-4.58,14.387-4.58
		c1.436,0,3.017,0.126,4.742,0.377c1.724,0.252,3.125,0.557,4.203,0.916L780.344,79.313z"/>
	<path fill="#FFFFFF" d="M840.583,168.111c-0.431-2.156-0.754-4.382-0.97-6.681c-0.215-2.299-0.323-4.634-0.323-7.005
		c-4.24,4.742-9.017,8.586-14.332,11.53c-5.318,2.946-11.03,4.419-17.135,4.419c-9.915,0-17.566-3.234-22.954-9.7
		c-5.388-6.466-7.005-14.942-4.849-25.432c2.441-12.14,8.225-21.175,17.35-27.102c9.124-5.927,21.732-8.89,37.825-8.89h14.009
		l1.833-9.268c1.148-5.962,0.789-10.399-1.078-13.309c-1.869-2.91-5.318-4.365-10.346-4.365c-4.167,0-7.759,1.258-10.776,3.773
		c-3.017,2.515-4.922,5.927-5.711,10.237l-29.851-0.108l-0.215-0.646c1.724-10.561,7.471-19.236,17.242-26.025
		c9.769-6.79,21.732-10.184,35.885-10.184c12.285,0,22.001,3.593,29.151,10.776c7.147,7.185,9.465,17.206,6.951,30.067l-9.698,48.17
		c-1.222,5.891-1.886,11.136-1.994,15.733c-0.108,4.598,0.232,9.268,1.023,14.01H840.583z M820.97,147.097
		c3.734,0,7.489-0.986,11.261-2.963c3.773-1.975,6.915-4.435,9.43-7.382l3.986-19.721h-14.009c-5.318,0-9.844,1.688-13.578,5.064
		c-3.737,3.378-6.035,7.4-6.897,12.07c-0.862,4.167-0.43,7.365,1.294,9.591C814.18,145.984,817.018,147.097,820.97,147.097z
		 M857.071,6.035h32.544l0.216,0.647L857.394,34.7h-23.816l-0.215-0.539L857.071,6.035z"/>
	<path fill="#FFFFFF" d="M938.757,66.66c4.669-5.625,9.913-9.916,15.733-12.87c5.82-2.955,11.962-4.434,18.428-4.434
		c10.273,0,17.889,3.755,22.847,11.261c4.957,7.508,5.89,19.058,2.801,34.646l-14.547,72.849h-31.144l14.549-72.908
		c1.651-8.351,1.455-14.041-0.593-17.065c-2.047-3.023-6.017-4.535-11.907-4.535c-3.378,0-6.665,0.865-9.86,2.592
		c-3.198,1.728-6.126,4.104-8.784,7.129l-16.918,84.788h-31.036L911.6,51.51h28.989L938.757,66.66z"/>
</g>
</svg>
